<?xml version="1.0" encoding="UTF-8" standalone="no"?>
<!-- Created with Inkscape (http://www.inkscape.org/) -->

<svg
   xmlns:dc="http://purl.org/dc/elements/1.1/"
   xmlns:cc="http://creativecommons.org/ns#"
   xmlns:rdf="http://www.w3.org/1999/02/22-rdf-syntax-ns#"
   xmlns:svg="http://www.w3.org/2000/svg"
   xmlns="http://www.w3.org/2000/svg"
   xmlns:sodipodi="http://sodipodi.sourceforge.net/DTD/sodipodi-0.dtd"
   xmlns:inkscape="http://www.inkscape.org/namespaces/inkscape"
   width="396"
   height="468"
   id="svg2"
   version="1.1"
   inkscape:version="0.48.3.1 r9886"
   sodipodi:docname="KitabyteRegularSpecimen.svg">
  <defs
     id="defs4" />
  <sodipodi:namedview
     id="base"
     pagecolor="#ffffff"
     bordercolor="#666666"
     borderopacity="1.0"
     inkscape:pageopacity="0.0"
     inkscape:pageshadow="2"
     inkscape:zoom="1"
     inkscape:cx="229.25"
     inkscape:cy="228.83054"
     inkscape:document-units="px"
     inkscape:current-layer="g4191"
     showgrid="false"
     inkscape:window-width="1366"
     inkscape:window-height="746"
     inkscape:window-x="1024"
     inkscape:window-y="0"
     inkscape:window-maximized="1"
     showguides="true"
     inkscape:guide-bbox="true"
     inkscape:snap-page="true">
    <inkscape:grid
       type="xygrid"
       id="grid3004"
       empspacing="5"
       visible="true"
       enabled="true"
       snapvisiblegridlinesonly="true" />
  </sodipodi:namedview>
  <metadata
     id="metadata7">
    <rdf:RDF>
      <cc:Work
         rdf:about="">
        <dc:format>image/svg+xml</dc:format>
        <dc:type
           rdf:resource="http://purl.org/dc/dcmitype/StillImage" />
        <dc:title></dc:title>
      </cc:Work>
    </rdf:RDF>
  </metadata>
  <g
     inkscape:label="Background"
     inkscape:groupmode="layer"
     id="layer1"
     transform="translate(0,-584.36217)"
     sodipodi:insensitive="true">
    <rect
       style="color:#000000;fill:#dcdcdc;fill-opacity:1;fill-rule:nonzero;stroke:none;stroke-width:4;marker:none;visibility:visible;display:inline;overflow:visible;enable-background:accumulate"
       id="rect3008"
       width="396"
       height="312"
       x="0"
       y="0"
       transform="translate(0,584.36217)" />
    <rect
       style="color:#000000;fill:#182f4c;fill-opacity:1;fill-rule:nonzero;stroke:none;stroke-width:4;marker:none;visibility:visible;display:inline;overflow:visible;enable-background:accumulate"
       id="rect3778"
       width="396"
       height="156"
       x="0"
       y="312.43652"
       transform="translate(0,583.92565)" />
  </g>
  <g
     inkscape:groupmode="layer"
     id="layer2"
     inkscape:label="Text"
     style="display:none">
    <g
       id="g4011">
      <text
         transform="translate(70.890625,-28)"
         sodipodi:linespacing="100%"
         id="text3785"
         y="106"
         x="-40.890625"
         style="font-size:48px;font-style:normal;font-variant:normal;font-weight:500;font-stretch:normal;text-align:start;line-height:100%;writing-mode:lr-tb;text-anchor:start;color:#000000;fill:#000000;fill-opacity:1;fill-rule:nonzero;stroke:none;stroke-width:4;marker:none;visibility:visible;display:inline;overflow:visible;enable-background:accumulate;font-family:Kitabyte;-inkscape-font-specification:Kitabyte Medium"
         xml:space="preserve"><tspan
           style="font-size:64px"
           y="106"
           x="-40.890625"
           id="tspan3787"
           sodipodi:role="line">Kitabyte</tspan></text>
      <text
         transform="translate(-2,44)"
         sodipodi:linespacing="100%"
         id="text3789"
         y="164"
         x="372"
         style="font-size:64px;font-style:normal;font-variant:normal;font-weight:500;font-stretch:normal;text-align:end;line-height:100%;writing-mode:lr-tb;text-anchor:end;color:#000000;fill:#ffffff;fill-opacity:1;fill-rule:nonzero;stroke:none;stroke-width:4;marker:none;visibility:visible;display:inline;overflow:visible;enable-background:accumulate;font-family:Kitabyte;-inkscape-font-specification:Kitabyte Medium"
         xml:space="preserve"><tspan
           style="font-size:144px;text-align:end;text-anchor:end;fill:#ffffff;fill-opacity:1"
           y="164"
           x="372"
           id="tspan3791"
           sodipodi:role="line">a</tspan></text>
      <text
         transform="translate(-31,22)"
         sodipodi:linespacing="100%"
         id="text3793"
         y="136"
         x="61"
         style="font-size:144px;font-style:normal;font-variant:normal;font-weight:500;font-stretch:normal;text-align:start;line-height:100%;writing-mode:lr-tb;text-anchor:start;color:#000000;fill:#000000;fill-opacity:1;fill-rule:nonzero;stroke:none;stroke-width:4;marker:none;visibility:visible;display:inline;overflow:visible;enable-background:accumulate;font-family:Kitabyte;-inkscape-font-specification:Kitabyte Medium"
         xml:space="preserve"><tspan
           style="font-size:40px"
           y="136"
           x="61"
           id="tspan3795"
           sodipodi:role="line">Aa Ee Gg</tspan><tspan
           style="font-size:40px"
           id="tspan3797"
           y="176"
           x="61"
           sodipodi:role="line">Nn Qq Rr</tspan></text>
      <text
         transform="translate(-31,222)"
         sodipodi:linespacing="100%"
         id="text3793-3"
         y="136"
         x="61"
         style="font-size:144px;font-style:normal;font-variant:normal;font-weight:500;font-stretch:normal;text-align:start;line-height:100%;writing-mode:lr-tb;text-anchor:start;color:#000000;fill:#ffffff;fill-opacity:1;fill-rule:nonzero;stroke:none;stroke-width:4;marker:none;visibility:visible;display:inline;overflow:visible;enable-background:accumulate;font-family:Kitabyte;-inkscape-font-specification:Kitabyte Medium"
         xml:space="preserve"><tspan
           style="font-size:36px;fill:#ffffff;fill-opacity:1"
           id="tspan3797-3"
           y="136"
           x="61"
           sodipodi:role="line">abcdefghijklm</tspan><tspan
           id="tspan3825"
           style="font-size:36px;fill:#ffffff;fill-opacity:1"
           y="172"
           x="61"
           sodipodi:role="line">nopqrstuvwxyz</tspan></text>
      <text
         transform="translate(49.234375,312)"
         sodipodi:linespacing="100%"
         id="text3793-3-7"
         y="136"
         x="320.76562"
         style="font-size:144px;font-style:normal;font-variant:normal;font-weight:500;font-stretch:normal;text-align:end;line-height:100%;writing-mode:lr-tb;text-anchor:end;color:#000000;fill:#ffffff;fill-opacity:1;fill-rule:nonzero;stroke:none;stroke-width:4;marker:none;visibility:visible;display:inline;overflow:visible;enable-background:accumulate;font-family:Kitabyte;-inkscape-font-specification:Kitabyte Medium"
         xml:space="preserve"><tspan
           id="tspan3825-8"
           style="font-size:36px;text-align:end;text-anchor:end;fill:#ffffff;fill-opacity:1"
           y="136"
           x="320.76562"
           sodipodi:role="line">0123456789</tspan></text>
      <text
         transform="translate(102.51562,142)"
         sodipodi:linespacing="100%"
         id="text3793-2"
         y="136"
         x="267.48438"
         style="font-size:144px;font-style:normal;font-variant:normal;font-weight:500;font-stretch:normal;text-align:end;line-height:100%;writing-mode:lr-tb;text-anchor:end;color:#000000;fill:#182f4c;fill-opacity:1;fill-rule:nonzero;stroke:none;stroke-width:4;marker:none;visibility:visible;display:inline;overflow:visible;enable-background:accumulate;font-family:Kitabyte;-inkscape-font-specification:Kitabyte Medium"
         xml:space="preserve"><tspan
           style="font-size:40px;text-align:end;text-anchor:end;fill:#182f4c;fill-opacity:1"
           id="tspan3797-1"
           y="136"
           x="267.48438"
           sodipodi:role="line">Bitmap</tspan></text>
    </g>
  </g>
  <g
     inkscape:label="Text copy"
     id="g4191"
     inkscape:groupmode="layer">
    <g
       id="g4193">
      <g
         transform="translate(70.890625,-28)"
         style="font-size:48px;font-style:normal;font-variant:normal;font-weight:500;font-stretch:normal;text-align:start;line-height:100%;writing-mode:lr-tb;text-anchor:start;color:#000000;fill:#000000;fill-opacity:1;fill-rule:nonzero;stroke:none;stroke-width:4;marker:none;visibility:visible;display:inline;overflow:visible;enable-background:accumulate;font-family:Kitabyte;-inkscape-font-specification:Kitabyte Medium"
         id="text4195">
        <path
           d="m -35.557292,106 5.333334,0 0,-16 5.333333,0 0,-10.666667 5.333333,0 0,-5.333333 5.333334,0 0,-5.333333 10.6666663,0 0,-5.333334 -10.6666663,0 0,5.333334 -5.333334,0 0,5.333333 -5.333333,0 0,5.333333 -5.333333,0 0,-16 -5.333334,0 0,42.666667 m 10.666667,-16 0,5.333333 5.333333,0 0,-5.333333 -5.333333,0 m 5.333333,5.333333 0,5.333337 5.333334,0 0,-5.333337 -5.333334,0 m 5.333334,5.333337 0,5.33333 10.6666663,0 0,-5.33333 -10.6666663,0"
           style="font-size:64px;marker:none"
           id="path4224" />
        <path
           d="m 17.734375,63.333333 5.333333,0 0,-5.333333 -5.333333,0 0,5.333333 M 23.067708,74 l -10.666666,0 0,5.333333 5.333333,0 0,21.333337 5.333333,0 0,-26.66667 m 0,26.66667 0,5.33333 10.666667,0 0,-5.33333 -10.666667,0"
           style="font-size:64px;marker:none"
           id="path4226" />
        <path
           d="m 60.359375,63.333333 0,10.666667 -10.666667,0 0,5.333333 10.666667,0 0,21.333337 5.333333,0 0,-21.333337 10.666667,0 0,-5.333333 -10.666667,0 0,-10.666667 -5.333333,0 m 5.333333,37.333337 0,5.33333 10.666667,0 0,-5.33333 -10.666667,0"
           style="font-size:64px;marker:none"
           id="path4228" />
        <path
           d="m 118.98438,74 -16,0 0,5.333333 16,0 0,-5.333333 m 0,5.333333 0,5.333334 -21.333338,0 0,5.333333 21.333338,0 0,10.66667 -21.333338,0 0,-10.66667 -5.333334,0 0,10.66667 5.333334,0 0,5.33333 26.666668,0 0,-26.666667 -5.33333,0"
           style="font-size:64px;marker:none"
           id="path4230" />
        <path
           d="m 134.94271,106 5.33333,0 0,-5.33333 5.33333,0 0,-5.333337 -5.33333,0 0,-10.666666 5.33333,0 0,-5.333334 16,0 0,-5.333333 -16,0 0,5.333333 -5.33333,0 0,-16 -5.33333,0 0,42.666667 m 26.66666,-26.666667 0,21.333337 5.33334,0 0,-21.333337 -5.33334,0 m -16,21.333337 0,5.33333 16,0 0,-5.33333 -16,0"
           style="font-size:64px;marker:none"
           id="path4232" />
        <path
           d="m 177.56771,74 0,21.333333 5.33333,0 0,-21.333333 -5.33333,0 m 26.66666,0 0,16 -5.33333,0 0,5.333333 5.33333,0 0,10.666667 5.33334,0 0,-32 -5.33334,0 m -21.33333,21.333333 0,5.333337 16,0 0,-5.333337 -16,0 M 204.23437,106 l -16,0 0,5.33333 16,0 0,-5.33333"
           style="font-size:64px;marker:none"
           id="path4234" />
        <path
           d="m 230.85937,63.333333 0,10.666667 -10.66666,0 0,5.333333 10.66666,0 0,21.333337 5.33334,0 0,-21.333337 10.66666,0 0,-5.333333 -10.66666,0 0,-10.666667 -5.33334,0 m 5.33334,37.333337 0,5.33333 10.66666,0 0,-5.33333 -10.66666,0"
           style="font-size:64px;marker:none"
           id="path4236" />
        <path
           d="m 289.48437,74 -21.33333,0 0,5.333333 21.33333,0 0,-5.333333 m -21.33333,5.333333 -5.33333,0 0,21.333337 5.33333,0 0,-10.66667 26.66667,0 0,-10.666667 -5.33334,0 0,5.333334 -21.33333,0 0,-5.333334 m 0,21.333337 0,5.33333 21.33333,0 0,-5.33333 -21.33333,0"
           style="font-size:64px;marker:none"
           id="path4238" />
      </g>
      <g
         transform="translate(-2,44)"
         style="font-size:64px;font-style:normal;font-variant:normal;font-weight:500;font-stretch:normal;text-align:end;line-height:100%;writing-mode:lr-tb;text-anchor:end;color:#000000;fill:#ffffff;fill-opacity:1;fill-rule:nonzero;stroke:none;stroke-width:4;marker:none;visibility:visible;display:inline;overflow:visible;enable-background:accumulate;font-family:Kitabyte;-inkscape-font-specification:Kitabyte Medium"
         id="text4199">
        <path
           d="m 348.09375,92 -36,0 0,12 36,0 0,-12 m 0,12 0,12 -48,0 0,12 48,0 0,24 -48,0 0,-24 -12,0 0,24 12,0 0,12 60,0 0,-60 -12,0"
           style="font-size:144px;fill:#ffffff;marker:none"
           id="path4241" />
      </g>
      <g
         transform="translate(-31,22)"
         style="font-size:144px;font-style:normal;font-variant:normal;font-weight:500;font-stretch:normal;text-align:start;line-height:100%;writing-mode:lr-tb;text-anchor:start;color:#000000;fill:#000000;fill-opacity:1;fill-rule:nonzero;stroke:none;stroke-width:4;marker:none;visibility:visible;display:inline;overflow:visible;enable-background:accumulate;font-family:Kitabyte;-inkscape-font-specification:Kitabyte Medium"
         id="text4203">
        <path
           d="m 64.333333,136 3.333334,0 0,-6.66667 13.333333,0 0,6.66667 3.333333,0 0,-16.66667 -3.333333,0 0,-6.66666 -3.333333,0 0,-3.33334 -6.666667,0 0,3.33334 6.666667,0 0,6.66666 3.333333,0 0,6.66667 -13.333333,0 0,-6.66667 3.333333,0 0,-6.66666 -3.333333,0 0,6.66666 -3.333334,0 0,16.66667"
           style="font-size:40px;marker:none"
           id="path4244" />
        <path
           d="m 107.64063,116 -10.000005,0 0,3.33333 10.000005,0 0,-3.33333 m 0,3.33333 0,3.33334 -13.333338,0 0,3.33333 13.333338,0 0,6.66667 -13.333338,0 0,-6.66667 -3.333334,0 0,6.66667 3.333334,0 0,3.33333 16.666668,0 0,-16.66667 -3.33333,0"
           style="font-size:40px;marker:none"
           id="path4246" />
        <path
           d="m 164.25521,109.33333 -20,0 0,26.66667 20,0 0,-3.33333 -16.66667,0 0,-10 13.33333,0 0,-3.33334 -13.33333,0 0,-6.66666 16.66667,0 0,-3.33334"
           style="font-size:40px;marker:none"
           id="path4248" />
        <path
           d="m 187.5625,116 -13.33333,0 0,3.33333 13.33333,0 0,-3.33333 m -13.33333,3.33333 -3.33334,0 0,13.33334 3.33334,0 0,-6.66667 16.66666,0 0,-6.66667 -3.33333,0 0,3.33334 -13.33333,0 0,-3.33334 m 0,13.33334 0,3.33333 13.33333,0 0,-3.33333 -13.33333,0"
           style="font-size:40px;marker:none"
           id="path4250" />
        <path
           d="m 240.84375,116 3.33333,0 0,-3.33333 -3.33333,0 0,-3.33334 -13.33333,0 0,3.33334 13.33333,0 0,3.33333 m -13.33333,-3.33333 -3.33334,0 0,20 3.33334,0 0,-20 m 16.66666,10 -10,0 0,3.33333 6.66667,0 0,6.66667 3.33333,0 0,-10 m -16.66666,10 0,3.33333 13.33333,0 0,-3.33333 -13.33333,0"
           style="font-size:40px;marker:none"
           id="path4252" />
        <path
           d="m 264.15104,116 -10,0 0,3.33333 10,0 0,-3.33333 m -10,3.33333 -3.33333,0 0,10 3.33333,0 0,-10 m 10,0 0,3.33334 3.33333,0 0,3.33333 -3.33333,0 0,3.33333 3.33333,0 0,6.66667 3.33334,0 0,-20 -3.33334,0 0,3.33333 -3.33333,0 m -10,10 0,3.33334 10,0 0,-3.33334 -10,0 M 267.48437,136 l -10,0 0,3.33333 10,0 0,-3.33333"
           style="font-size:40px;marker:none"
           id="path4254" />
        <path
           d="m 64.333333,176 3.333334,0 0,-16.66667 3.333333,0 0,-3.33333 -3.333333,0 0,-6.66667 -3.333334,0 0,26.66667 M 81,176 l 3.333333,0 0,-26.66667 -3.333333,0 0,16.66667 -3.333333,0 0,-3.33333 -3.333334,0 0,-3.33334 -3.333333,0 0,3.33334 3.333333,0 0,3.33333 3.333334,0 0,3.33333 3.333333,0 L 81,176"
           style="font-size:40px;marker:none"
           id="path4256" />
        <path
           d="m 90.973958,176 3.333334,0 0,-13.33333 3.333333,0 0,-3.33334 10.000005,0 0,-3.33333 -10.000005,0 0,3.33333 -3.333333,0 0,-3.33333 -3.333334,0 0,20 m 16.666672,0 3.33333,0 0,-16.66667 -3.33333,0 0,16.66667"
           style="font-size:40px;marker:none"
           id="path4258" />
        <path
           d="m 160.92187,179.33333 3.33334,0 0,-3.33333 -3.33334,0 0,-3.33333 3.33334,0 0,-20 -3.33334,0 0,-3.33334 -13.33333,0 0,3.33334 13.33333,0 0,20 -3.33333,0 0,-6.66667 -3.33333,0 0,-3.33333 -3.33334,0 0,3.33333 3.33334,0 0,6.66667 -6.66667,0 0,-20 -3.33333,0 0,20 3.33333,0 0,3.33333 13.33333,0 0,3.33333"
           style="font-size:40px;marker:none"
           id="path4260" />
        <path
           d="m 184.22917,156 -10,0 0,3.33333 10,0 0,-3.33333 m -10,3.33333 -3.33334,0 0,13.33334 3.33334,0 0,-13.33334 m 10,0 0,3.33334 3.33333,0 0,6.66666 -3.33333,0 0,3.33334 3.33333,0 0,10 6.66667,0 0,-3.33334 -3.33334,0 0,-23.33333 -3.33333,0 0,3.33333 -3.33333,0 m -10,13.33334 0,3.33333 10,0 0,-3.33333 -10,0"
           style="font-size:40px;marker:none"
           id="path4262" />
        <path
           d="m 224.17708,176 3.33334,0 0,-13.33333 6.66666,0 0,3.33333 3.33334,0 0,-3.33333 3.33333,0 0,-3.33334 3.33333,0 0,-6.66666 -3.33333,0 0,-3.33334 -16.66667,0 0,26.66667 m 16.66667,0 3.33333,0 0,-3.33333 -3.33333,0 0,-6.66667 -3.33333,0 0,6.66667 3.33333,0 0,3.33333 m -13.33333,-23.33333 13.33333,0 0,6.66666 -13.33333,0 0,-6.66666"
           style="font-size:40px;marker:none"
           id="path4264" />
        <path
           d="m 267.48437,162.66667 3.33334,0 0,-3.33334 -3.33334,0 0,-3.33333 -10,0 0,3.33333 10,0 0,3.33334 M 250.81771,176 l 3.33333,0 0,-13.33333 3.33333,0 0,-3.33334 -3.33333,0 0,-3.33333 -3.33333,0 0,20"
           style="font-size:40px;marker:none"
           id="path4266" />
      </g>
      <g
         transform="translate(-31,222)"
         style="font-size:144px;font-style:normal;font-variant:normal;font-weight:500;font-stretch:normal;text-align:start;line-height:100%;writing-mode:lr-tb;text-anchor:start;color:#000000;fill:#ffffff;fill-opacity:1;fill-rule:nonzero;stroke:none;stroke-width:4;marker:none;visibility:visible;display:inline;overflow:visible;enable-background:accumulate;font-family:Kitabyte;-inkscape-font-specification:Kitabyte Medium"
         id="text4209">
        <path
           d="m 79,118 -9,0 0,3 9,0 0,-3 m 0,3 0,3 -12,0 0,3 12,0 0,6 -12,0 0,-6 -3,0 0,6 3,0 0,3 15,0 0,-15 -3,0"
           style="font-size:36px;fill:#ffffff;marker:none"
           id="path4269" />
        <path
           d="m 87.976562,136 3,0 0,-3 3,0 0,-3 -3,0 0,-6 3,0 0,-3 8.999998,0 0,-3 -8.999998,0 0,3 -3,0 0,-9 -3,0 0,24 m 14.999998,-15 0,12 3,0 0,-12 -3,0 m -8.999998,12 0,3 8.999998,0 0,-3 -8.999998,0"
           style="font-size:36px;fill:#ffffff;marker:none"
           id="path4271" />
        <path
           d="m 126.95313,118 -12,0 0,3 12,0 0,-3 m -12,3 -3,0 0,12 3,0 0,-12 m 0,12 0,3 12,0 0,-3 -12,0"
           style="font-size:36px;fill:#ffffff;marker:none"
           id="path4273" />
        <path
           d="m 150.92969,136 3,0 0,-24 -3,0 0,9 -3,0 0,-3 -9,0 0,3 9,0 0,3 3,0 0,6 -3,0 0,3 3,0 0,3 m -12,-15 -3,0 0,12 3,0 0,-12 m 0,12 0,3 9,0 0,-3 -9,0"
           style="font-size:36px;fill:#ffffff;marker:none"
           id="path4275" />
        <path
           d="m 174.90625,118 -12,0 0,3 12,0 0,-3 m -12,3 -3,0 0,12 3,0 0,-6 15,0 0,-6 -3,0 0,3 -12,0 0,-3 m 0,12 0,3 12,0 0,-3 -12,0"
           style="font-size:36px;fill:#ffffff;marker:none"
           id="path4277" />
        <path
           d="m 189.88281,136 3,0 0,-15 6,0 0,-3 -6,0 0,-3 9,0 0,-3 -9,0 0,3 -3,0 0,3 -6,0 0,3 6,0 0,15"
           style="font-size:36px;fill:#ffffff;marker:none"
           id="path4279" />
        <path
           d="m 219.85937,118 -9,0 0,3 9,0 0,-3 m -9,3 -3,0 0,9 3,0 0,-9 m 9,0 0,3 3,0 0,3 -3,0 0,3 3,0 0,6 3,0 0,-18 -3,0 0,3 -3,0 m -9,9 0,3 9,0 0,-3 -9,0 m 12,6 -9,0 0,3 9,0 0,-3"
           style="font-size:36px;fill:#ffffff;marker:none"
           id="path4281" />
        <path
           d="m 231.83594,136 3,0 0,-12 3,0 0,-3 9,0 0,-3 -9,0 0,3 -3,0 0,-9 -3,0 0,24 m 15,0 3,0 0,-15 -3,0 0,15"
           style="font-size:36px;fill:#ffffff;marker:none"
           id="path4283" />
        <path
           d="m 261.8125,112 3,0 0,-3 -3,0 0,3 m 3,6 -6,0 0,3 3,0 0,12 3,0 0,-15 m 0,15 0,3 6,0 0,-3 -6,0"
           style="font-size:36px;fill:#ffffff;marker:none"
           id="path4285" />
        <path
           d="m 288.78906,112 3,0 0,-3 -3,0 0,3 m 0,6 0,18 3,0 0,-18 -3,0 m -6,18 0,-3 -3,0 0,3 3,0 m 0,0 0,3 6,0 0,-3 -6,0"
           style="font-size:36px;fill:#ffffff;marker:none"
           id="path4287" />
        <path
           d="m 303.76562,136 3,0 0,-9 3,0 0,3 3,0 0,-6 3,0 0,-3 6,0 0,-3 -6,0 0,3 -3,0 0,3 -6,0 0,-12 -3,0 0,24 m 9,-6 0,3 3,0 0,-3 -3,0 m 3,3 0,3 6,0 0,-3 -6,0"
           style="font-size:36px;fill:#ffffff;marker:none"
           id="path4289" />
        <path
           d="m 336.74219,112 -6,0 0,3 3,0 0,18 3,0 0,-21 m 0,21 0,3 6,0 0,-3 -6,0"
           style="font-size:36px;fill:#ffffff;marker:none"
           id="path4291" />
        <path
           d="m 351.71875,136 3,0 0,-15 3,0 0,-3 -6,0 0,18 m 15,0 3,0 0,-15 -3,0 0,-3 -3,0 0,3 3,0 0,15 m -9,-15 0,6 6,0 0,-6 -6,0"
           style="font-size:36px;fill:#ffffff;marker:none"
           id="path4293" />
        <path
           d="m 64,172 3,0 0,-12 3,0 0,-3 9,0 0,-3 -9,0 0,3 -3,0 0,-3 -3,0 0,18 m 15,0 3,0 0,-15 -3,0 0,15"
           style="font-size:36px;fill:#ffffff;marker:none"
           id="path4295" />
        <path
           d="m 102.97656,154 -11.999998,0 0,3 11.999998,0 0,-3 m -11.999998,3 -3,0 0,12 3,0 0,-12 m 11.999998,0 0,12 3,0 0,-12 -3,0 m -11.999998,12 0,3 11.999998,0 0,-3 -11.999998,0"
           style="font-size:36px;fill:#ffffff;marker:none"
           id="path4297" />
        <path
           d="m 111.95313,178 3,0 0,-9 3,0 0,-3 -3,0 0,-6 3,0 0,-3 9,0 0,-3 -9,0 0,3 -3,0 0,-3 -3,0 0,24 m 15,-21 0,12 2.99999,0 0,-12 -2.99999,0 m -9,12 0,3 9,0 0,-3 -9,0"
           style="font-size:36px;fill:#ffffff;marker:none"
           id="path4299" />
        <path
           d="m 147.92969,154 -9,0 0,3 9,0 0,-3 m -9,3 -3,0 0,12 3,0 0,-12 m 9,0 0,3 3,0 0,6 -3,0 0,3 3,0 0,9 6,0 0,-3 -3,0 0,-21 -3,0 0,3 -3,0 m -9,12 0,3 9,0 0,-3 -9,0"
           style="font-size:36px;fill:#ffffff;marker:none"
           id="path4301" />
        <path
           d="m 174.90625,160 3,0 0,-3 -3,0 0,-3 -9,0 0,3 9,0 0,3 m -15,12 3,0 0,-12 3,0 0,-3 -3,0 0,-3 -3,0 0,18"
           style="font-size:36px;fill:#ffffff;marker:none"
           id="path4303" />
        <path
           d="m 198.88281,154 -12,0 0,3 12,0 0,-3 m -12,3 -3,0 0,3 3,0 0,-3 m 0,3 0,3 12,0 0,-3 -12,0 m 12,3 0,6 3,0 0,-6 -3,0 m 0,6 -15,0 0,3 15,0 0,-3"
           style="font-size:36px;fill:#ffffff;marker:none"
           id="path4305" />
        <path
           d="m 213.85937,148 0,6 -6,0 0,3 6,0 0,12 3,0 0,-12 6,0 0,-3 -6,0 0,-6 -3,0 m 3,21 0,3 6,0 0,-3 -6,0"
           style="font-size:36px;fill:#ffffff;marker:none"
           id="path4307" />
        <path
           d="m 246.83594,172 3,0 0,-18 -3,0 0,12 -3,0 0,3 3,0 0,3 m -15,-18 0,15 3,0 0,-15 -3,0 m 3,15 0,3 9,0 0,-3 -9,0"
           style="font-size:36px;fill:#ffffff;marker:none"
           id="path4309" />
        <path
           d="m 255.8125,154 0,9 3,0 0,-9 -3,0 m 15,0 0,9 3,0 0,-9 -3,0 m -12,9 0,6 3,0 0,-6 -3,0 m 12,0 -3,0 0,6 3,0 0,-6 m -9,6 0,3 6,0 0,-3 -6,0"
           style="font-size:36px;fill:#ffffff;marker:none"
           id="path4311" />
        <path
           d="m 282.78906,172 3,0 0,-6 6,0 0,-6 -6,0 0,6 -3,0 0,-12 -3,0 0,12 3,0 0,6 m 9,0 3,0 0,-6 3,0 0,-12 -3,0 0,12 -3,0 0,6"
           style="font-size:36px;fill:#ffffff;marker:none"
           id="path4313" />
        <path
           d="m 303.76562,172 3,0 0,-6 3,0 0,-3 6,0 0,-3 3,0 0,-3 3,0 0,-3 -3,0 0,3 -3,0 0,3 -6,0 0,-3 -3,0 0,-3 -3,0 0,3 3,0 0,3 3,0 0,3 -3,0 0,3 -3,0 0,6 m 15,0 3,0 0,-6 -3,0 0,-3 -3,0 0,3 3,0 0,6"
           style="font-size:36px;fill:#ffffff;marker:none"
           id="path4315" />
        <path
           d="m 327.74219,154 0,12 3,0 0,-12 -3,0 m 15,0 0,9 -3,0 0,3 3,0 0,6 3,0 0,-18 -3,0 m -12,12 0,3 9,0 0,-3 -9,0 m 12,6 -9,0 0,3 9,0 0,-3"
           style="font-size:36px;fill:#ffffff;marker:none"
           id="path4317" />
        <path
           d="m 369.71875,154 -18,0 0,3 12,0 0,3 3,0 0,-3 3,0 0,-3 m -6,6 -3,0 0,3 3,0 0,-3 m -3,3 -3,0 0,3 3,0 0,-3 m -3,3 -3,0 0,3 -3,0 0,3 18,0 0,-3 -12,0 0,-3"
           style="font-size:36px;fill:#ffffff;marker:none"
           id="path4319" />
      </g>
      <g
         transform="translate(49.234375,312)"
         style="font-size:144px;font-style:normal;font-variant:normal;font-weight:500;font-stretch:normal;text-align:end;line-height:100%;writing-mode:lr-tb;text-anchor:end;color:#000000;fill:#ffffff;fill-opacity:1;fill-rule:nonzero;stroke:none;stroke-width:4;marker:none;visibility:visible;display:inline;overflow:visible;enable-background:accumulate;font-family:Kitabyte;-inkscape-font-specification:Kitabyte Medium"
         id="text4215">
        <path
           d="m 93,127 3,0 0,-3 -3,0 0,3 m 3,-15 -6,0 0,3 6,0 0,-3 m -6,3 -3,0 0,3 3,0 0,-3 m 6,0 0,3 3,0 0,-3 -3,0 m -9,3 -3,0 0,12 3,0 0,-12 m 12,0 0,12 3,0 0,-12 -3,0 m -12,12 0,3 3,0 0,-3 -3,0 m 12,0 -3,0 0,3 3,0 0,-3 m -9,3 0,3 6,0 0,-3 -6,0"
           style="font-size:36px;fill:#ffffff;marker:none"
           id="path4322" />
        <path
           d="m 116.97656,115 -3,0 0,3 3,0 0,15 -3,0 0,3 9,0 0,-3 -3,0 0,-21 -3,0 0,3"
           style="font-size:36px;fill:#ffffff;marker:none"
           id="path4324" />
        <path
           d="m 131.95312,118 3,0 0,-3 12,0 0,-3 -12,0 0,3 -3,0 0,3 m 15,-3 0,9 3,0 0,-9 -3,0 m 0,9 -9,0 0,3 9,0 0,-3 m -9,3 -3,0 0,3 3,0 0,-3 m -3,3 -3,0 0,6 18,0 0,-3 -15,0 0,-3"
           style="font-size:36px;fill:#ffffff;marker:none"
           id="path4326" />
        <path
           d="m 155.92969,118 3,0 0,-3 12,0 0,-3 -12,0 0,3 -3,0 0,3 m 15,-3 0,6 3,0 0,-6 -3,0 m 0,6 -9,0 0,3 9,0 0,-3 m 0,3 0,9 3,0 0,-9 -3,0 m -12,9 0,-3 -3,0 0,3 3,0 m 0,0 0,3 12,0 0,-3 -12,0"
           style="font-size:36px;fill:#ffffff;marker:none"
           id="path4328" />
        <path
           d="m 191.90625,136 3,0 0,-9 3,0 0,-3 -3,0 0,-12 -6,0 0,3 3,0 0,9 -9,0 0,-3 3,0 0,-3 3,0 0,-3 -3,0 0,3 -3,0 0,3 -3,0 0,6 12,0 0,9"
           style="font-size:36px;fill:#ffffff;marker:none"
           id="path4330" />
        <path
           d="m 221.88281,112 -18,0 0,9 3,0 0,-6 15,0 0,-3 m -15,9 0,3 12,0 0,-3 -12,0 m 12,3 0,9 3,0 0,-9 -3,0 m -12,9 0,-3 -3,0 0,3 3,0 m 0,0 0,3 12,0 0,-3 -12,0"
           style="font-size:36px;fill:#ffffff;marker:none"
           id="path4332" />
        <path
           d="m 242.85937,112 -9,0 0,3 9,0 0,-3 m -9,3 -3,0 0,3 3,0 0,-3 m -3,3 -3,0 0,12 3,0 0,-3 3,0 0,-3 9,0 0,-3 -9,0 0,3 -3,0 0,-6 m 12,6 0,9 3,0 0,-9 -3,0 m -12,6 0,3 3,0 0,-3 -3,0 m 3,3 0,3 9,0 0,-3 -9,0"
           style="font-size:36px;fill:#ffffff;marker:none"
           id="path4334" />
        <path
           d="m 257.83594,136 3,0 0,-6 3,0 0,-6 3,0 0,-6 3,0 0,-6 -18,0 0,3 15,0 0,3 -3,0 0,6 -3,0 0,6 -3,0 0,6"
           style="font-size:36px;fill:#ffffff;marker:none"
           id="path4336" />
        <path
           d="m 290.8125,112 -12,0 0,3 12,0 0,-3 m -12,3 -3,0 0,3 3,0 0,-3 m 12,0 0,3 3,0 0,-3 -3,0 m -12,3 0,3 3,0 0,-3 -3,0 m 12,0 -3,0 0,3 3,0 0,-3 m -9,3 0,3 6,0 0,-3 -6,0 m 0,3 -3,0 0,3 3,0 0,-3 m 6,0 0,3 3,0 0,-3 -3,0 m -9,3 -3,0 0,6 3,0 0,-6 m 12,0 0,6 3,0 0,-6 -3,0 m -12,6 0,3 12,0 0,-3 -12,0"
           style="font-size:36px;fill:#ffffff;marker:none"
           id="path4338" />
        <path
           d="m 311.78906,112 -9,0 0,3 9,0 0,-3 m -9,3 -3,0 0,9 3,0 0,-9 m 9,0 0,3 3,0 0,-3 -3,0 m 3,3 0,3 -3,0 0,3 3,0 0,6 3,0 0,-12 -3,0 m -12,6 0,3 9,0 0,-3 -9,0 m 12,6 -3,0 0,3 3,0 0,-3 m -3,3 -9,0 0,3 9,0 0,-3"
           style="font-size:36px;fill:#ffffff;marker:none"
           id="path4340" />
      </g>
      <g
         transform="translate(102.51562,142)"
         style="font-size:144px;font-style:normal;font-variant:normal;font-weight:500;font-stretch:normal;text-align:end;line-height:100%;writing-mode:lr-tb;text-anchor:end;color:#000000;fill:#182f4c;fill-opacity:1;fill-rule:nonzero;stroke:none;stroke-width:4;marker:none;visibility:visible;display:inline;overflow:visible;enable-background:accumulate;font-family:Kitabyte;-inkscape-font-specification:Kitabyte Medium"
         id="text4219">
        <path
           d="m 124.30729,109.33333 -13.33333,0 0,26.66667 16.66667,0 0,-3.33333 3.33333,0 0,-6.66667 -3.33333,0 0,-3.33333 -3.33334,0 0,-3.33334 3.33334,0 0,-6.66666 -3.33334,0 0,-3.33334 m -10,3.33334 10,0 0,6.66666 -10,0 0,-6.66666 m 0,10 10,0 0,3.33333 3.33334,0 0,6.66667 -13.33334,0 0,-10"
           style="font-size:40px;fill:#182f4c;marker:none"
           id="path4343" />
        <path
           d="m 144.28125,109.33333 3.33333,0 0,-3.33333 -3.33333,0 0,3.33333 m 3.33333,6.66667 -6.66666,0 0,3.33333 3.33333,0 0,13.33334 3.33333,0 0,-16.66667 m 0,16.66667 0,3.33333 6.66667,0 0,-3.33333 -6.66667,0"
           style="font-size:40px;fill:#182f4c;marker:none"
           id="path4345" />
        <path
           d="m 170.92187,109.33333 0,6.66667 -6.66666,0 0,3.33333 6.66666,0 0,13.33334 3.33334,0 0,-13.33334 6.66666,0 0,-3.33333 -6.66666,0 0,-6.66667 -3.33334,0 m 3.33334,23.33334 0,3.33333 6.66666,0 0,-3.33333 -6.66666,0"
           style="font-size:40px;fill:#182f4c;marker:none"
           id="path4347" />
        <path
           d="m 190.89583,136 3.33334,0 0,-16.66667 3.33333,0 0,-3.33333 -6.66667,0 0,20 m 16.66667,0 3.33333,0 0,-16.66667 -3.33333,0 0,-3.33333 -3.33333,0 0,3.33333 3.33333,0 0,16.66667 m -10,-16.66667 0,6.66667 6.66667,0 0,-6.66667 -6.66667,0"
           style="font-size:40px;fill:#182f4c;marker:none"
           id="path4349" />
        <path
           d="m 234.20312,116 -10,0 0,3.33333 10,0 0,-3.33333 m 0,3.33333 0,3.33334 -13.33333,0 0,3.33333 13.33333,0 0,6.66667 -13.33333,0 0,-6.66667 -3.33333,0 0,6.66667 3.33333,0 0,3.33333 16.66667,0 0,-16.66667 -3.33334,0"
           style="font-size:40px;fill:#182f4c;marker:none"
           id="path4351" />
        <path
           d="m 244.17708,142.66667 3.33334,0 0,-10 3.33333,0 0,-3.33334 -3.33333,0 0,-6.66666 3.33333,0 0,-3.33334 10,0 0,-3.33333 -10,0 0,3.33333 -3.33333,0 0,-3.33333 -3.33334,0 0,26.66667 m 16.66667,-23.33334 0,13.33334 3.33333,0 0,-13.33334 -3.33333,0 m -10,13.33334 0,3.33333 10,0 0,-3.33333 -10,0"
           style="font-size:40px;fill:#182f4c;marker:none"
           id="path4353" />
      </g>
    </g>
  </g>
</svg>
